<?xml version="1.0" standalone="no"?>
<!DOCTYPE svg PUBLIC "-//W3C//DTD SVG 20010904//EN"
 "http://www.w3.org/TR/2001/REC-SVG-20010904/DTD/svg10.dtd">
<svg version="1.0" xmlns="http://www.w3.org/2000/svg"
 width="1280.000000pt" height="1280.000000pt" viewBox="0 0 1280.000000 1280.000000"
 preserveAspectRatio="xMidYMid meet">
<metadata>
Created by potrace 1.15, written by Peter Selinger 2001-2017
</metadata>
<g transform="translate(0.000000,1280.000000) scale(0.100000,-0.100000)"
fill="#000000" stroke="none">
<path d="M3045 10600 c-9 -15 4 -30 26 -30 22 0 24 11 7 28 -15 15 -25 15 -33
2z"/>
<path d="M2603 10589 c-36 -9 -43 -14 -43 -34 0 -13 6 -28 13 -32 32 -20 68
-77 64 -101 -2 -13 0 -40 5 -60 5 -20 13 -70 17 -111 8 -68 11 -75 47 -107 22
-18 42 -34 46 -34 3 0 16 -20 28 -44 17 -37 19 -49 9 -67 -14 -27 -5 -102 16
-132 8 -12 15 -18 15 -14 0 10 60 -31 77 -53 7 -8 21 -34 32 -57 11 -23 35
-58 52 -78 l32 -36 -18 -52 c-17 -52 -17 -53 3 -94 39 -75 112 -110 176 -83
17 7 43 14 57 17 31 6 48 -15 107 -128 21 -41 44 -83 50 -94 13 -23 72 -153
92 -203 28 -72 -14 -96 -153 -85 -58 5 -84 13 -137 43 -36 20 -73 40 -84 44
-10 3 -49 27 -87 52 -37 25 -74 44 -80 42 -7 -2 7 -14 32 -26 24 -12 56 -33
71 -47 15 -14 44 -37 65 -51 38 -26 38 -26 8 -21 -90 18 -182 39 -200 47 -11
5 -47 17 -80 26 -33 9 -76 24 -95 33 -19 8 -45 16 -56 18 -12 1 -48 13 -80 26
-85 35 -114 41 -114 22 0 -19 54 -42 235 -100 83 -26 174 -56 203 -66 29 -11
87 -26 129 -35 42 -8 87 -24 99 -33 20 -16 209 -85 331 -121 24 -7 50 -21 59
-32 10 -10 25 -18 34 -18 10 0 23 -7 30 -15 7 -8 35 -25 64 -39 69 -33 146
-109 180 -178 16 -32 32 -87 37 -129 6 -41 17 -87 26 -104 33 -62 214 -258
266 -287 20 -12 37 -25 37 -29 0 -4 -30 -22 -67 -41 -45 -23 -72 -44 -85 -66
-10 -18 -15 -32 -12 -32 8 0 69 44 76 57 5 6 31 28 59 48 51 36 51 36 93 22
33 -12 77 -14 192 -10 133 5 156 3 218 -16 77 -24 117 -46 191 -104 110 -87
148 -148 160 -254 7 -61 1 -75 -21 -53 -12 12 -18 6 -137 -119 -38 -39 -74
-71 -80 -71 -7 0 -29 -5 -50 -11 -31 -8 -38 -14 -35 -31 2 -12 11 -26 20 -32
13 -8 23 -4 50 21 140 133 225 203 248 203 35 0 -17 -122 -65 -152 -29 -18
-29 -19 -4 -13 22 6 27 3 33 -19 12 -48 -25 -84 -101 -100 -36 -8 -49 -20 -58
-57 -11 -45 39 -91 132 -122 70 -23 85 -25 148 -17 39 5 99 18 135 30 91 29
394 82 441 76 21 -2 39 0 39 4 0 5 9 8 20 7 26 -2 26 -31 0 -55 -11 -11 -18
-26 -15 -34 3 -8 -3 -30 -14 -49 -29 -51 -28 -157 3 -215 l23 -44 16 43 c9 23
21 92 28 152 12 110 27 155 54 155 7 0 30 -16 51 -35 l37 -35 -7 -68 c-4 -37
-9 -92 -12 -122 -3 -30 -10 -70 -16 -88 -6 -20 -8 -67 -4 -115 6 -75 4 -91
-28 -194 -19 -61 -47 -138 -62 -170 -24 -51 -28 -71 -29 -168 -1 -80 -6 -118
-17 -139 -15 -27 -15 -30 2 -49 11 -11 26 -39 34 -61 10 -28 15 -34 15 -19 1
12 -6 43 -15 69 -13 38 -14 57 -5 109 6 34 11 79 11 100 0 21 4 52 9 69 5 17
14 51 21 76 33 132 43 161 55 156 8 -3 11 2 8 15 -3 10 2 41 11 68 9 28 16 59
16 71 0 18 5 20 39 18 53 -3 73 15 68 63 -2 21 -6 42 -10 46 -4 3 -7 17 -7 30
0 13 -6 23 -14 23 -25 0 -27 17 -15 122 14 119 26 141 58 107 26 -28 27 -44 1
-66 -11 -10 -20 -22 -20 -27 0 -5 11 1 25 14 l25 23 0 -26 c0 -14 5 -29 11
-33 6 -3 17 -22 25 -41 16 -38 66 -73 106 -73 54 0 77 -23 38 -38 -14 -5 -17
-11 -9 -22 8 -13 11 -13 23 3 16 21 17 19 31 -53 4 -19 18 -68 32 -108 13 -40
21 -82 18 -93 -4 -11 -1 -27 7 -36 10 -12 13 -63 13 -207 0 -179 -1 -194 -22
-234 -42 -78 -25 -190 35 -244 l35 -30 -9 -59 c-10 -57 -2 -105 15 -95 4 3 6
37 3 76 l-5 70 30 11 c36 12 51 41 59 113 6 46 3 60 -21 104 -15 27 -40 59
-55 71 l-28 20 -2 158 c-4 277 -16 404 -49 498 -15 43 -18 62 -10 72 18 21 48
16 53 -9 3 -13 7 -35 10 -49 6 -29 50 -64 67 -53 7 4 9 27 5 64 l-7 57 51 31
c27 17 50 36 50 41 0 6 24 -14 53 -44 46 -48 57 -54 90 -53 20 1 37 5 37 10 0
4 9 8 19 8 31 0 71 41 77 80 4 23 -2 56 -16 95 -39 111 -40 109 11 102 64 -9
72 0 64 66 -6 50 -5 56 14 67 18 9 27 7 54 -13 17 -14 48 -27 68 -30 20 -3 57
-21 83 -41 58 -44 148 -141 169 -182 25 -48 114 -119 327 -258 36 -23 86 -56
111 -74 26 -18 54 -32 62 -32 9 0 37 -18 62 -40 25 -22 50 -40 55 -40 5 0 17
-11 26 -25 20 -31 5 -55 -35 -55 -26 0 -51 -16 -51 -32 0 -9 129 2 153 14 13
7 31 -2 78 -39 34 -26 85 -66 115 -88 29 -22 74 -65 100 -95 60 -71 119 -110
165 -110 66 0 79 47 27 96 -44 41 -72 57 -143 83 -102 37 -128 52 -190 111
-33 31 -82 69 -110 85 -44 25 -109 80 -180 153 -12 12 -27 22 -32 22 -10 0
-59 42 -146 124 -29 27 -100 92 -160 144 -59 52 -112 102 -117 111 -5 9 -26
26 -46 37 -46 23 -52 28 -168 127 -50 43 -96 88 -103 100 -20 37 -16 66 12 77
14 5 25 16 25 25 0 22 9 19 59 -23 25 -21 71 -55 101 -77 30 -22 57 -43 58
-47 5 -11 22 -10 22 1 0 5 -19 20 -42 34 -24 14 -74 52 -112 86 -38 34 -73 61
-77 61 -5 0 -11 10 -14 23 -5 17 -13 23 -33 22 -60 -3 -92 41 -89 121 2 46 4
49 27 46 14 -2 45 -15 69 -28 28 -15 48 -21 54 -15 6 6 1 13 -12 21 -12 6 -19
15 -16 21 9 13 -9 11 -23 -3 -8 -8 -15 -8 -24 0 -7 5 -30 13 -50 17 -28 5 -40
14 -50 36 -8 18 -29 37 -57 50 -94 44 -119 65 -126 109 -6 34 -4 44 12 55 21
16 59 19 67 6 3 -5 14 -7 24 -4 10 2 46 -5 80 -16 34 -12 78 -21 99 -21 122 0
411 -83 587 -168 5 -3 5 1 1 8 -26 42 -422 169 -608 195 -63 8 -69 27 -24 73
19 20 44 56 56 79 44 89 30 98 -164 99 -138 1 -155 3 -187 22 -20 12 -42 37
-49 55 -14 35 -110 166 -155 210 -15 16 -57 42 -93 60 -96 46 -129 78 -136
135 -11 88 -24 118 -69 160 -73 68 -170 70 -288 7 -38 -20 -72 -33 -78 -30 -5
3 -25 39 -43 78 -21 45 -44 80 -62 91 -16 10 -60 50 -98 88 -39 38 -83 76 -98
83 -31 16 -88 80 -109 122 -8 15 -31 47 -52 70 -21 24 -38 49 -38 57 0 23 -85
94 -126 105 -22 6 -56 11 -76 11 -48 0 -152 38 -224 81 -31 19 -90 67 -132
108 -43 40 -108 94 -147 119 -38 25 -81 55 -94 66 -54 48 -116 114 -151 161
-21 27 -58 72 -83 98 -40 42 -48 57 -62 125 -9 42 -21 92 -25 110 -7 27 -5 34
8 39 8 4 18 1 20 -5 6 -20 22 -13 22 9 0 34 -59 111 -82 107 -43 -6 -45 -32
-5 -111 25 -50 39 -94 43 -135 l7 -62 -29 0 c-16 1 -56 16 -89 35 -33 18 -98
53 -146 78 -47 24 -94 49 -105 55 -41 21 -196 82 -209 82 -3 0 -5 -4 -5 -9 0
-5 17 -11 38 -15 20 -3 78 -27 127 -52 50 -26 104 -53 120 -62 17 -8 75 -41
130 -72 55 -31 120 -67 145 -79 56 -28 123 -92 205 -197 77 -98 280 -304 299
-304 8 0 57 -32 109 -70 91 -67 189 -120 223 -120 8 0 13 -4 10 -9 -3 -5 0 -8
7 -8 6 1 41 -2 77 -6 87 -11 144 -51 188 -134 17 -33 39 -66 47 -73 9 -7 25
-27 37 -43 l21 -29 -22 7 c-16 5 -21 2 -21 -13 0 -11 7 -33 15 -48 26 -51 21
-59 -40 -61 -33 -2 -55 1 -55 8 0 6 -9 8 -20 4 -11 -4 -20 -2 -20 4 0 6 -5 11
-11 11 -7 0 -5 -10 5 -25 16 -25 14 -65 -3 -65 -4 0 -44 32 -87 70 -106 94
-137 109 -48 24 73 -72 138 -154 128 -163 -3 -3 -9 1 -14 9 -7 10 -10 11 -10
3 0 -7 -6 -13 -14 -13 -8 0 -16 -7 -20 -15 -7 -20 -36 -8 -36 15 0 10 -6 20
-12 23 -10 3 -10 7 0 19 16 20 5 48 -18 48 -26 0 -33 -32 -15 -66 20 -40 19
-45 -10 -38 -14 4 -32 1 -40 -6 -23 -19 -44 -5 -65 45 -11 25 -22 45 -25 45
-3 0 -1 -9 5 -20 12 -22 1 -26 -20 -7 -12 10 -12 9 -1 -5 7 -9 10 -22 6 -28
-3 -5 2 -10 12 -10 23 0 50 -44 52 -85 3 -49 6 -70 15 -83 4 -7 6 -15 5 -16
-12 -11 -70 -36 -82 -36 -23 0 -36 -46 -37 -132 -1 -24 -5 -28 -31 -28 -17 0
-42 -9 -56 -20 -42 -32 -96 -42 -199 -34 -94 7 -130 21 -121 48 2 6 28 14 57
19 77 11 77 21 1 13 -36 -3 -69 -2 -75 4 -7 5 -22 7 -35 3 -29 -7 -25 -43 7
-59 42 -21 49 -34 28 -50 -26 -19 -28 -18 -64 16 -18 17 -36 30 -42 30 -5 0
-25 13 -43 30 -19 16 -36 27 -39 25 -2 -3 -17 9 -33 25 -16 17 -34 30 -41 30
-17 0 -145 66 -139 72 3 2 -26 15 -63 28 -77 26 -122 51 -173 94 -29 25 -141
107 -196 145 -20 13 -71 100 -97 166 -15 39 -48 110 -72 159 -24 48 -42 92
-39 96 3 5 -6 20 -19 35 -29 31 -42 95 -26 124 7 14 21 21 39 21 53 0 87 76
51 115 -10 11 -41 77 -68 146 -28 69 -57 140 -66 157 -34 66 -145 189 -246
274 l-107 89 -36 92 c-21 51 -37 103 -37 117 0 14 -14 38 -32 57 -28 29 -31
36 -20 53 11 18 9 22 -13 30 -15 6 -29 10 -33 10 -4 0 -25 12 -47 27 -25 17
-60 30 -95 34 -30 4 -66 10 -80 13 -14 2 -44 0 -67 -5z m409 -636 c55 -53 70
-187 31 -276 l-16 -37 -24 22 c-13 12 -40 54 -59 93 -19 38 -43 81 -54 95 -26
35 -33 106 -12 126 24 24 98 11 134 -23z m2588 -1106 c54 -60 60 -71 48 -83
-29 -29 -108 29 -108 80 0 11 -11 41 -25 65 -44 76 -38 72 85 -62z m-2197 -3
c77 -17 117 -37 117 -57 0 -10 -30 -4 -105 21 -58 18 -105 38 -105 43 0 12 9
12 93 -7z m1815 -156 c2 -12 -1 -16 -11 -12 -8 3 -18 1 -22 -5 -8 -13 -45 -14
-64 -2 -12 8 -12 12 -2 25 18 22 95 17 99 -6z m134 -27 c5 -10 66 -51 77 -51
13 0 81 -81 81 -97 0 -22 -49 -66 -65 -59 -51 21 -51 21 -31 -3 14 -15 16 -25
9 -32 -26 -26 -95 46 -118 123 -14 47 -13 56 3 105 17 52 25 54 44 14z m-727
-457 c6 -1 15 -2 20 -3 6 -1 3 -6 -5 -11 -13 -9 -13 -12 2 -24 17 -13 68 -82
68 -92 0 -2 -16 4 -35 13 -19 10 -48 38 -64 63 -17 25 -38 56 -48 69 l-17 24
34 -19 c19 -10 40 -19 45 -20z"/>
<path d="M5324 10326 c-4 -10 -2 -22 4 -28 8 -8 13 -7 18 6 4 10 2 22 -4 28
-8 8 -13 7 -18 -6z"/>
<path d="M5312 10191 c2 -7 7 -12 11 -12 12 1 9 15 -3 20 -7 2 -11 -2 -8 -8z"/>
<path d="M4307 10076 c-3 -8 -2 -18 3 -21 13 -8 24 15 12 27 -6 6 -11 4 -15
-6z"/>
<path d="M4380 9538 c0 -7 9 -19 20 -25 17 -12 18 -11 11 9 -9 25 -31 36 -31
16z"/>
<path d="M6724 9389 c-10 -17 13 -36 27 -22 12 12 4 33 -11 33 -5 0 -12 -5
-16 -11z"/>
<path d="M4662 9359 c-12 -19 -11 -19 8 -9 11 6 20 15 20 20 0 17 -15 11 -28
-11z"/>
<path d="M4971 9211 c-12 -22 -14 -70 -5 -95 10 -26 30 -18 49 19 15 27 17 40
9 62 -12 34 -39 41 -53 14z"/>
<path d="M5010 9043 c1 -10 50 -46 56 -41 2 3 -10 14 -26 27 -17 12 -30 18
-30 14z"/>
<path d="M5415 9020 c3 -5 8 -10 11 -10 2 0 4 5 4 10 0 6 -5 10 -11 10 -5 0
-7 -4 -4 -10z"/>
<path d="M4780 8962 c0 -7 42 -32 55 -32 13 0 3 18 -12 24 -10 3 -24 9 -30 12
-7 3 -13 2 -13 -4z"/>
<path d="M5266 8951 c-3 -4 1 -17 8 -27 13 -17 14 -17 9 9 -6 29 -9 32 -17 18z"/>
<path d="M7166 8953 c-11 -11 -6 -23 9 -23 8 0 15 4 15 9 0 13 -16 22 -24 14z"/>
<path d="M7735 8880 c-3 -5 -1 -10 4 -10 6 0 11 5 11 10 0 6 -2 10 -4 10 -3 0
-8 -4 -11 -10z"/>
<path d="M3433 8714 c-8 -22 5 -30 23 -12 14 14 14 16 -1 21 -9 4 -18 1 -22
-9z"/>
<path d="M4070 8710 c0 -5 4 -10 9 -10 6 0 13 5 16 10 3 6 -1 10 -9 10 -9 0
-16 -4 -16 -10z"/>
<path d="M7945 8690 c-3 -5 -1 -10 4 -10 6 0 11 5 11 10 0 6 -2 10 -4 10 -3 0
-8 -4 -11 -10z"/>
<path d="M4265 8476 c17 -9 35 -15 41 -16 7 0 19 -11 28 -25 19 -29 24 -30 49
-10 30 22 7 50 -40 51 -21 0 -54 4 -73 7 l-35 7 30 -14z"/>
<path d="M3404 8212 c-39 -26 -37 -88 3 -98 48 -12 78 63 37 93 -20 15 -25 16
-40 5z"/>
<path d="M9786 7868 c-19 -26 -4 -51 28 -46 29 4 33 43 7 57 -16 9 -23 7 -35
-11z"/>
<path d="M7570 7740 c0 -5 5 -10 10 -10 6 0 10 5 10 10 0 6 -4 10 -10 10 -5 0
-10 -4 -10 -10z"/>
<path d="M7810 7393 c36 -40 69 -73 73 -73 10 0 67 -62 67 -73 0 -15 52 -98
58 -92 10 10 -53 118 -88 152 -19 19 -66 62 -105 96 l-69 62 64 -72z"/>
<path d="M9660 7380 c0 -5 7 -10 15 -10 8 0 15 5 15 10 0 6 -7 10 -15 10 -8 0
-15 -4 -15 -10z"/>
<path d="M3874 7366 c-3 -8 0 -25 7 -37 11 -22 12 -22 25 -4 9 12 10 23 3 36
-12 23 -28 25 -35 5z"/>
<path d="M4487 7190 c-3 -13 -14 -20 -30 -20 -24 0 -97 -67 -97 -89 0 -24 21
-18 62 15 23 20 58 43 76 51 35 15 38 20 18 46 -17 22 -22 22 -29 -3z"/>
<path d="M3910 7140 c0 -5 5 -10 10 -10 6 0 10 5 10 10 0 6 -4 10 -10 10 -5 0
-10 -4 -10 -10z"/>
<path d="M5480 6890 c0 -5 5 -10 11 -10 5 0 7 5 4 10 -3 6 -8 10 -11 10 -2 0
-4 -4 -4 -10z"/>
<path d="M3795 6880 c-3 -5 -1 -10 4 -10 6 0 11 5 11 10 0 6 -2 10 -4 10 -3 0
-8 -4 -11 -10z"/>
<path d="M5486 6861 c-4 -7 -5 -15 -2 -18 9 -9 19 4 14 18 -4 11 -6 11 -12 0z"/>
<path d="M4313 6805 c-3 -9 -3 -18 0 -21 9 -9 27 6 27 22 0 19 -19 18 -27 -1z"/>
<path d="M5806 6753 c-6 -14 -5 -15 5 -6 7 7 10 15 7 18 -3 3 -9 -2 -12 -12z"/>
<path d="M4590 6670 c0 -5 7 -10 15 -10 8 0 15 5 15 10 0 6 -7 10 -15 10 -8 0
-15 -4 -15 -10z"/>
<path d="M5830 6665 c7 -8 17 -15 22 -15 5 0 3 7 -6 15 -8 8 -18 15 -22 15 -3
0 -1 -7 6 -15z"/>
<path d="M4545 6650 c-3 -5 -2 -10 4 -10 5 0 13 5 16 10 3 6 2 10 -4 10 -5 0
-13 -4 -16 -10z"/>
<path d="M6760 6599 c0 -14 14 -46 30 -72 17 -26 30 -54 30 -62 0 -8 5 -15 10
-15 17 0 11 33 -10 55 -12 12 -29 44 -40 71 -15 38 -19 43 -20 23z"/>
<path d="M5800 6565 c-14 -8 -35 -11 -46 -9 -25 6 -42 -12 -26 -28 12 -12 77
9 94 29 16 20 6 23 -22 8z"/>
<path d="M6616 6527 c3 -10 9 -15 12 -12 3 3 0 11 -7 18 -10 9 -11 8 -5 -6z"/>
<path d="M6001 6484 c0 -11 3 -14 6 -6 3 7 2 16 -1 19 -3 4 -6 -2 -5 -13z"/>
<path d="M6920 6420 c0 -5 5 -10 10 -10 6 0 10 5 10 10 0 6 -4 10 -10 10 -5 0
-10 -4 -10 -10z"/>
<path d="M6210 6413 c0 -17 18 -35 28 -29 6 4 16 -3 22 -15 7 -11 14 -18 17
-15 7 7 -25 44 -49 57 -10 5 -18 6 -18 2z"/>
<path d="M5670 6389 c0 -5 5 -7 10 -4 6 3 10 8 10 11 0 2 -4 4 -10 4 -5 0 -10
-5 -10 -11z"/>
<path d="M6706 6387 c3 -10 9 -15 12 -12 3 3 0 11 -7 18 -10 9 -11 8 -5 -6z"/>
<path d="M5284 6369 c-10 -17 23 -46 37 -32 7 7 9 19 6 27 -7 18 -33 21 -43 5z"/>
<path d="M6026 6352 c-4 -12 -1 -33 8 -49 l15 -28 0 35 c1 46 -14 71 -23 42z"/>
<path d="M6724 6351 c3 -4 10 -21 16 -36 6 -15 13 -25 16 -22 6 6 -23 67 -32
67 -3 0 -3 -4 0 -9z"/>
<path d="M6035 6250 c-4 -12 -5 -24 -2 -27 3 -2 8 5 12 17 4 12 5 24 2 27 -3
2 -8 -5 -12 -17z"/>
<path d="M5645 6210 c-9 -15 4 -30 26 -30 12 0 19 7 19 20 0 21 -33 29 -45 10z"/>
<path d="M6907 6205 c-13 -9 -15 -15 -7 -20 7 -4 19 -1 27 8 19 19 3 29 -20
12z"/>
<path d="M6800 6160 c0 -5 5 -10 11 -10 5 0 7 5 4 10 -3 6 -8 10 -11 10 -2 0
-4 -4 -4 -10z"/>
<path d="M6790 6130 c0 -21 16 -44 23 -33 4 6 0 19 -8 29 -11 15 -14 16 -15 4z"/>
<path d="M6969 6090 c-6 -25 -6 -60 0 -60 13 0 21 44 11 54 -6 6 -11 8 -11 6z"/>
<path d="M6043 6015 c0 -27 2 -38 4 -22 2 15 2 37 0 50 -2 12 -4 0 -4 -28z"/>
<path d="M6767 6016 c-7 -17 1 -26 24 -26 17 0 32 23 22 34 -12 11 -41 6 -46
-8z"/>
<path d="M6222 5858 c-25 -32 -42 -109 -35 -167 5 -54 8 -61 36 -72 28 -12 32
-11 53 15 27 31 30 67 13 148 -10 49 -32 88 -49 88 -4 0 -12 -6 -18 -12z"/>
<path d="M5686 5793 c-4 -9 -2 -21 4 -27 7 -7 10 -7 10 1 0 6 3 18 6 27 3 9 2
16 -4 16 -5 0 -13 -8 -16 -17z"/>
<path d="M5967 5734 c-14 -14 -7 -35 11 -32 9 2 17 10 17 17 0 16 -18 25 -28
15z"/>
<path d="M6122 5690 c0 -14 2 -19 5 -12 2 6 2 18 0 25 -3 6 -5 1 -5 -13z"/>
<path d="M7008 5703 c-48 -5 -49 -25 -4 -52 42 -26 58 -26 82 0 14 15 16 24 8
37 -12 18 -28 21 -86 15z"/>
<path d="M8894 5596 c-11 -28 2 -61 29 -76 26 -14 29 -14 42 3 16 23 9 53 -18
72 -27 19 -46 19 -53 1z"/>
<path d="M6881 5584 c0 -11 3 -14 6 -6 3 7 2 16 -1 19 -3 4 -6 -2 -5 -13z"/>
<path d="M8955 5470 c-13 -21 17 -42 51 -36 28 6 34 3 53 -29 20 -34 28 -39
62 -36 9 1 22 -5 29 -14 20 -24 33 -18 16 7 -9 12 -16 30 -16 40 0 10 -9 27
-21 39 -16 16 -28 20 -55 14 -23 -4 -41 -1 -56 10 -26 17 -54 20 -63 5z"/>
<path d="M9490 5431 c0 -6 5 -13 10 -16 6 -3 10 1 10 9 0 9 -4 16 -10 16 -5 0
-10 -4 -10 -9z"/>
<path d="M5920 5394 c0 -8 5 -12 10 -9 6 4 8 11 5 16 -9 14 -15 11 -15 -7z"/>
<path d="M8507 5373 c-12 -11 -8 -23 8 -23 8 0 15 7 15 15 0 16 -12 20 -23 8z"/>
<path d="M3507 5054 c-4 -4 -7 -16 -7 -26 0 -14 6 -19 23 -16 14 2 22 10 22
23 0 20 -25 32 -38 19z"/>
<path d="M5796 5021 c-15 -17 -15 -20 2 -41 16 -19 22 -21 40 -11 24 13 29 40
10 59 -17 17 -32 15 -52 -7z"/>
<path d="M5991 5014 c0 -11 3 -14 6 -6 3 7 2 16 -1 19 -3 4 -6 -2 -5 -13z"/>
<path d="M4950 4960 c0 -5 5 -10 11 -10 5 0 7 5 4 10 -3 6 -8 10 -11 10 -2 0
-4 -4 -4 -10z"/>
<path d="M9663 4949 c-18 -18 39 -129 78 -156 67 -46 160 -20 130 36 -12 21
-84 81 -98 81 -4 0 -29 11 -54 24 -32 17 -49 22 -56 15z"/>
<path d="M5760 4930 c0 -5 5 -10 10 -10 6 0 10 5 10 10 0 6 -4 10 -10 10 -5 0
-10 -4 -10 -10z"/>
<path d="M3560 4855 c0 -8 5 -15 10 -15 6 0 10 7 10 15 0 8 -4 15 -10 15 -5 0
-10 -7 -10 -15z"/>
<path d="M5510 4776 c0 -2 7 -9 15 -16 12 -10 15 -10 15 4 0 9 -7 16 -15 16
-8 0 -15 -2 -15 -4z"/>
<path d="M6620 4740 c0 -5 7 -10 16 -10 8 0 12 5 9 10 -3 6 -10 10 -16 10 -5
0 -9 -4 -9 -10z"/>
<path d="M5530 4705 c0 -9 5 -15 11 -13 6 2 11 8 11 13 0 5 -5 11 -11 13 -6 2
-11 -4 -11 -13z"/>
<path d="M9012 4603 c2 -10 10 -18 18 -18 22 0 18 29 -3 33 -14 3 -18 -1 -15
-15z"/>
<path d="M7013 4575 c4 -9 7 -27 7 -40 0 -30 41 -75 68 -75 25 0 52 34 45 58
-9 36 -39 60 -82 67 -39 6 -43 5 -38 -10z"/>
<path d="M8760 4570 c0 -5 5 -10 10 -10 6 0 10 5 10 10 0 6 -4 10 -10 10 -5 0
-10 -4 -10 -10z"/>
<path d="M6341 4156 c-43 -24 -66 -113 -38 -149 6 -9 23 -19 37 -22 37 -9 97
47 106 97 5 32 2 41 -21 63 -31 28 -49 30 -84 11z"/>
<path d="M5845 4141 c-3 -5 -1 -12 5 -16 5 -3 10 1 10 9 0 18 -6 21 -15 7z"/>
<path d="M3115 4130 c3 -5 8 -10 11 -10 2 0 4 5 4 10 0 6 -5 10 -11 10 -5 0
-7 -4 -4 -10z"/>
<path d="M6146 3707 c-9 -7 -21 -32 -27 -56 -5 -23 -29 -72 -54 -107 -24 -36
-47 -82 -50 -102 -20 -126 -30 -170 -43 -190 -18 -27 -11 -100 13 -136 13 -19
60 -46 81 -46 2 0 15 25 29 56 14 30 49 90 78 132 65 96 80 155 59 227 -9 28
-15 85 -14 129 1 45 -4 86 -10 93 -13 17 -39 17 -62 0z"/>
<path d="M5590 3610 c0 -46 3 -61 10 -50 5 8 10 31 10 50 0 19 -5 42 -10 50
-7 11 -10 -4 -10 -50z"/>
<path d="M8183 3623 c-16 -6 -17 -33 -3 -33 11 0 26 28 19 34 -2 2 -10 1 -16
-1z"/>
<path d="M7430 3470 c0 -5 5 -10 10 -10 6 0 10 5 10 10 0 6 -4 10 -10 10 -5 0
-10 -4 -10 -10z"/>
<path d="M5526 3340 c-10 -36 -22 -75 -27 -88 -21 -54 -2 -87 32 -56 21 19 25
54 8 71 -7 7 -7 22 1 50 7 21 10 50 8 63 -2 18 -8 7 -22 -40z"/>
<path d="M8100 3080 c0 -5 5 -10 11 -10 5 0 7 5 4 10 -3 6 -8 10 -11 10 -2 0
-4 -4 -4 -10z"/>
<path d="M2972 2981 c2 -7 7 -12 11 -12 12 1 9 15 -3 20 -7 2 -11 -2 -8 -8z"/>
<path d="M6136 2675 c-15 -40 28 -68 46 -29 10 21 9 27 -3 35 -21 13 -36 11
-43 -6z"/>
<path d="M3385 2650 c3 -5 8 -10 11 -10 2 0 4 5 4 10 0 6 -5 10 -11 10 -5 0
-7 -4 -4 -10z"/>
</g>
</svg>
